<svg width="60" height="60" viewBox="0 0 60 60" fill="none" xmlns="http://www.w3.org/2000/svg">
<path d="M7.5 15.625C7.5 13.4701 8.35602 11.4035 9.87976 9.87976C11.4035 8.35602 13.4701 7.5 15.625 7.5H44.375C46.5299 7.5 48.5965 8.35602 50.1202 9.87976C51.644 11.4035 52.5 13.4701 52.5 15.625V44.375C52.5 46.5299 51.644 48.5965 50.1202 50.1202C48.5965 51.644 46.5299 52.5 44.375 52.5H15.625C13.4701 52.5 11.4035 51.644 9.87976 50.1202C8.35602 48.5965 7.5 46.5299 7.5 44.375V15.625ZM31.875 19.375C31.875 18.8777 31.6775 18.4008 31.3258 18.0492C30.9742 17.6975 30.4973 17.5 30 17.5C29.5027 17.5 29.0258 17.6975 28.6742 18.0492C28.3225 18.4008 28.125 18.8777 28.125 19.375V28.125H19.375C18.8777 28.125 18.4008 28.3225 18.0492 28.6742C17.6975 29.0258 17.5 29.5027 17.5 30C17.5 30.4973 17.6975 30.9742 18.0492 31.3258C18.4008 31.6775 18.8777 31.875 19.375 31.875H28.125V40.625C28.125 41.1223 28.3225 41.5992 28.6742 41.9508C29.0258 42.3025 29.5027 42.5 30 42.5C30.4973 42.5 30.9742 42.3025 31.3258 41.9508C31.6775 41.5992 31.875 41.1223 31.875 40.625V31.875H40.625C41.1223 31.875 41.5992 31.6775 41.9508 31.3258C42.3025 30.9742 42.5 30.4973 42.5 30C42.5 29.5027 42.3025 29.0258 41.9508 28.6742C41.5992 28.3225 41.1223 28.125 40.625 28.125H31.875V19.375Z" fill="black"/>
</svg>
