<svg width="40" height="40" viewBox="0 0 40 40" fill="none" xmlns="http://www.w3.org/2000/svg">
<path d="M13.5 20C13.5 20.4596 13.4095 20.9148 13.2336 21.3394C13.0577 21.764 12.7999 22.1499 12.4749 22.4749C12.1499 22.7999 11.764 23.0577 11.3394 23.2336C10.9148 23.4095 10.4596 23.5 10 23.5C9.54037 23.5 9.08525 23.4095 8.66061 23.2336C8.23597 23.0577 7.85013 22.7999 7.52513 22.4749C7.20012 22.1499 6.94231 21.764 6.76642 21.3394C6.59053 20.9148 6.5 20.4596 6.5 20C6.5 19.0717 6.86875 18.1815 7.52513 17.5251C8.1815 16.8687 9.07174 16.5 10 16.5C10.9283 16.5 11.8185 16.8687 12.4749 17.5251C13.1313 18.1815 13.5 19.0717 13.5 20Z" fill="black"/>
<path d="M23.5 20C23.5 20.4596 23.4095 20.9148 23.2336 21.3394C23.0577 21.764 22.7999 22.1499 22.4749 22.4749C22.1499 22.7999 21.764 23.0577 21.3394 23.2336C20.9148 23.4095 20.4596 23.5 20 23.5C19.5404 23.5 19.0852 23.4095 18.6606 23.2336C18.236 23.0577 17.8501 22.7999 17.5251 22.4749C17.2001 22.1499 16.9423 21.764 16.7664 21.3394C16.5905 20.9148 16.5 20.4596 16.5 20C16.5 19.0717 16.8687 18.1815 17.5251 17.5251C18.1815 16.8687 19.0717 16.5 20 16.5C20.9283 16.5 21.8185 16.8687 22.4749 17.5251C23.1313 18.1815 23.5 19.0717 23.5 20Z" fill="black"/>
<path d="M30 23.5C30.4596 23.5 30.9148 23.4095 31.3394 23.2336C31.764 23.0577 32.1499 22.7999 32.4749 22.4749C32.7999 22.1499 33.0577 21.764 33.2336 21.3394C33.4095 20.9148 33.5 20.4596 33.5 20C33.5 19.5404 33.4095 19.0852 33.2336 18.6606C33.0577 18.236 32.7999 17.8501 32.4749 17.5251C32.1499 17.2001 31.764 16.9423 31.3394 16.7664C30.9148 16.5905 30.4596 16.5 30 16.5C29.0717 16.5 28.1815 16.8687 27.5251 17.5251C26.8687 18.1815 26.5 19.0717 26.5 20C26.5 20.9283 26.8687 21.8185 27.5251 22.4749C28.1815 23.1313 29.0717 23.5 30 23.5V23.5Z" fill="black"/>
</svg>
