<svg width="40" height="40" viewBox="0 0 40 40" fill="none" xmlns="http://www.w3.org/2000/svg">
<path fill-rule="evenodd" clip-rule="evenodd" d="M32 2H8C7.46957 2 6.96086 2.21071 6.58579 2.58579C6.21071 2.96086 6 3.46957 6 4V36C6 36.5304 6.21071 37.0391 6.58579 37.4142C6.96086 37.7893 7.46957 38 8 38H32C32.5304 38 33.0391 37.7893 33.4142 37.4142C33.7893 37.0391 34 36.5304 34 36V4C34 3.46957 33.7893 2.96086 33.4142 2.58579C33.0391 2.21071 32.5304 2 32 2ZM26 30H14V26H26V30ZM26 22H14V18H26V22ZM26 14H14V10H26V14Z" fill="#D1D5DB"/>
</svg>
