<svg width="40" height="40" viewBox="0 0 40 40" fill="none" xmlns="http://www.w3.org/2000/svg">
<path d="M10 36.6667H31.6667C32.5507 36.6667 33.3986 36.3155 34.0237 35.6904C34.6488 35.0652 35 34.2174 35 33.3333V6.66667C35 5.78261 34.6488 4.93477 34.0237 4.30965C33.3986 3.68453 32.5507 3.33334 31.6667 3.33334H8.33333C7.44928 3.33334 6.60143 3.68453 5.97631 4.30965C5.35119 4.93477 5 5.78261 5 6.66667V33.3333C5 34.2174 5.35119 35.0652 5.97631 35.6904C6.60143 36.3155 7.44928 36.6667 8.33333 36.6667H10ZM20 8.33167C22.745 8.33167 25 10.5833 25 13.3317C25 16.0783 22.745 18.3333 20 18.3333C17.255 18.3333 15 16.0783 15 13.3317C15 10.5833 17.255 8.33167 20 8.33167ZM10 28.75C10 25.0517 14.5083 21.25 20 21.25C25.4917 21.25 30 25.0517 30 28.75V30H10V28.75Z" fill="black"/>
</svg>
